<svg width="118" height="51" viewBox="0 0 118 51" fill="none" xmlns="http://www.w3.org/2000/svg">
<g clip-path="url(#clip0_4538_5)">
<path d="M0.203125 47.0603L1.05989 45.6953C1.41817 45.928 1.76088 46.1296 2.05685 46.2692C2.36841 46.4088 2.63322 46.4864 2.86689 46.4864C3.05382 46.4864 3.19402 46.4398 3.31864 46.3623C3.42768 46.2847 3.48999 46.1762 3.48999 46.0366C3.48999 45.8504 3.38095 45.6953 3.17844 45.5712C2.96035 45.4471 2.72669 45.3386 2.44629 45.23C2.15032 45.1059 1.85435 44.9663 1.55837 44.8112C1.2624 44.6561 1.01316 44.4544 0.81065 44.2218C0.608142 43.9736 0.514676 43.6634 0.514676 43.2756C0.514676 42.7482 0.732762 42.2984 1.15336 41.9572C1.57395 41.6159 2.18148 41.4453 2.94478 41.4453C3.31864 41.4453 3.72365 41.4918 4.14425 41.5849C4.56484 41.678 4.9387 41.8331 5.29699 42.0347L4.50253 43.4152C4.3156 43.2911 4.08194 43.1825 3.78596 43.0895C3.48999 42.9964 3.24075 42.9499 3.03824 42.9499C2.91362 42.9499 2.789 42.9809 2.6488 43.0274C2.5086 43.074 2.43072 43.167 2.43072 43.3066C2.43072 43.4617 2.52418 43.5858 2.72669 43.6944C2.9292 43.7875 3.14728 43.896 3.42768 44.0046C3.72365 44.1132 4.01963 44.2528 4.33118 44.4079C4.64273 44.563 4.89197 44.7647 5.11006 45.0128C5.32814 45.261 5.42161 45.6023 5.42161 46.0055C5.42161 46.4088 5.31256 46.7656 5.0789 47.0603C4.84524 47.355 4.54926 47.5877 4.1754 47.7428C3.80154 47.8979 3.38095 47.9754 2.91362 47.9754C2.47745 47.9754 2.0257 47.8979 1.55837 47.7428C1.09105 47.5877 0.623719 47.3705 0.203125 47.0603Z" fill="white"/>
<path d="M13.3659 45.261C13.4749 45.6022 13.693 45.8969 13.989 46.1141C14.3005 46.3313 14.6432 46.4398 15.0638 46.4398C15.5 46.4398 15.8583 46.3623 16.1543 46.2227C16.4347 46.0831 16.6995 45.8969 16.9331 45.6798L18.0391 46.9827C17.5562 47.3705 17.0733 47.6187 16.5904 47.7738C16.1075 47.9289 15.6558 47.9909 15.2196 47.9909C14.5186 47.9909 13.9111 47.8513 13.3659 47.5721C12.8362 47.2929 12.4156 46.9052 12.1041 46.4088C11.8081 45.9125 11.6523 45.3541 11.6523 44.7181C11.6523 44.0977 11.7925 43.5393 12.0885 43.0429C12.3845 42.5621 12.7739 42.1743 13.2724 41.8796C13.7709 41.6004 14.3473 41.4608 14.9859 41.4608C15.6246 41.4608 16.1854 41.6004 16.6839 41.8796C17.1824 42.1588 17.5718 42.5466 17.8522 43.0429C18.1326 43.5393 18.2884 44.0977 18.2884 44.7336V45.2765H13.3659V45.261ZM16.4191 44.2528C16.3256 43.8805 16.1543 43.5858 15.8739 43.3532C15.5935 43.1205 15.2663 43.0119 14.8925 43.0119C14.503 43.0119 14.1759 43.1205 13.8799 43.3532C13.5995 43.5858 13.4126 43.8805 13.3191 44.2373H16.4191V44.2528Z" fill="white"/>
<path d="M30.4701 47.0603C30.1585 47.355 29.8002 47.5876 29.3641 47.7427C28.9435 47.9134 28.4761 47.9909 27.9777 47.9909C27.3078 47.9909 26.7159 47.8513 26.1862 47.5721C25.6566 47.2929 25.2516 46.9052 24.94 46.4088C24.6441 45.9125 24.4883 45.3541 24.4883 44.7336C24.4883 44.1132 24.6441 43.5393 24.94 43.0584C25.236 42.5776 25.6566 42.1743 26.1862 41.8951C26.7159 41.6159 27.3078 41.4763 27.9777 41.4763C28.4761 41.4763 28.9435 41.5539 29.3641 41.7245C29.7847 41.8951 30.1585 42.1123 30.4701 42.407L29.1927 43.6013C28.8967 43.2291 28.4917 43.0429 27.9777 43.0429C27.5103 43.0429 27.1365 43.198 26.8249 43.5238C26.5289 43.8495 26.3732 44.2528 26.3732 44.7336C26.3732 45.2145 26.5289 45.6177 26.8249 45.9435C27.1209 46.2692 27.5103 46.4243 27.9777 46.4243C28.4761 46.4243 28.8812 46.2382 29.1927 45.8659L30.4701 47.0603Z" fill="white"/>
<path d="M36.998 41.5848H38.8206V44.9507C38.8206 45.4161 38.9141 45.7883 39.1166 46.0365C39.3191 46.2847 39.5995 46.4243 39.9734 46.4243C40.3628 46.4243 40.6899 46.2847 40.9392 46.0055C41.1884 45.7263 41.313 45.3695 41.313 44.9507V41.5693H43.1356V47.8513H41.5467L41.4688 47.0757C41.2196 47.3549 40.9236 47.5876 40.5809 47.7427C40.2382 47.8978 39.8643 47.9754 39.4437 47.9754C38.6493 47.9754 38.0417 47.7117 37.6211 47.1998C37.2161 46.688 36.998 45.9279 36.998 44.9197V41.5848Z" fill="white"/>
<path d="M50.207 47.8513V41.5694H51.7959L51.8894 42.469C52.3412 41.7865 52.9798 41.4453 53.7899 41.4453C54.0703 41.4453 54.3507 41.4918 54.6311 41.5694L54.3818 43.136C54.1326 43.0585 53.8989 43.0119 53.6652 43.0119C53.1823 43.0119 52.7773 43.198 52.4814 43.5548C52.1854 43.9116 52.0296 44.4234 52.0296 45.0904V47.8669H50.207V47.8513Z" fill="white"/>
<path d="M60.5664 39.4289C60.5664 39.1342 60.6599 38.886 60.8468 38.6999C61.0337 38.5137 61.283 38.4207 61.5789 38.4207C61.8749 38.4207 62.1242 38.5137 62.3111 38.6999C62.498 38.886 62.5915 39.1342 62.5915 39.4289C62.5915 39.7236 62.498 39.9717 62.3111 40.1579C62.1242 40.344 61.8749 40.4371 61.5789 40.4371C61.283 40.4371 61.0337 40.344 60.8468 40.1579C60.6599 39.9717 60.5664 39.7391 60.5664 39.4289ZM60.6599 47.8513V41.5694H62.4824V47.8513H60.6599Z" fill="white"/>
<path d="M69.0878 41.5694H70.1315V40.0028H71.9541V41.5694H73.4807V43.136H71.9541V45.4471C71.9541 45.7419 72.0476 45.9745 72.2345 46.1451C72.4214 46.3158 72.6707 46.3933 72.9666 46.3933C73.1847 46.3933 73.4028 46.3468 73.6365 46.2537V47.7428C73.2315 47.8979 72.842 47.9754 72.4526 47.9754C71.7049 47.9754 71.1285 47.7738 70.7235 47.3705C70.3185 46.9672 70.116 46.3933 70.116 45.6488V43.1205H69.0723V41.5694H69.0878Z" fill="white"/>
<path d="M81.7364 41.5693L83.2163 44.6405C83.2786 44.7801 83.3409 44.9352 83.4032 45.1058C83.4655 45.2765 83.5122 45.4626 83.559 45.6642L85.2569 41.5693H87.173L83.2474 51H81.3314L82.7645 47.5411L79.8359 41.5693H81.7364Z" fill="white"/>
<path d="M93.0605 46.9827C93.0605 46.688 93.154 46.4398 93.3409 46.2537C93.5279 46.0676 93.7771 45.9745 94.0731 45.9745C94.3691 45.9745 94.6183 46.0676 94.8052 46.2537C94.9922 46.4398 95.0856 46.688 95.0856 46.9827C95.0856 47.2774 94.9922 47.5256 94.8052 47.7117C94.6183 47.8978 94.3691 47.9909 94.0731 47.9909C93.7771 47.9909 93.5279 47.8978 93.3409 47.7117C93.154 47.5256 93.0605 47.2774 93.0605 46.9827Z" fill="white"/>
<path d="M101.971 39.4289C101.971 39.1342 102.064 38.886 102.251 38.6999C102.438 38.5137 102.687 38.4207 102.983 38.4207C103.279 38.4207 103.528 38.5137 103.715 38.6999C103.902 38.886 103.996 39.1342 103.996 39.4289C103.996 39.7236 103.902 39.9717 103.715 40.1579C103.528 40.344 103.279 40.4371 102.983 40.4371C102.687 40.4371 102.438 40.344 102.251 40.1579C102.064 39.9717 101.971 39.7391 101.971 39.4289ZM102.064 47.8513V41.5694H103.887V47.8513H102.064Z" fill="white"/>
<path d="M110.43 44.7181C110.43 44.0822 110.57 43.5238 110.866 43.0429C111.162 42.5466 111.551 42.1588 112.065 41.8796C112.579 41.6004 113.156 41.4608 113.794 41.4608C114.449 41.4608 115.025 41.6004 115.524 41.8796C116.022 42.1588 116.427 42.5466 116.723 43.0429C117.019 43.5393 117.159 44.0977 117.159 44.7181C117.159 45.3385 117.019 45.9125 116.723 46.3933C116.427 46.8896 116.038 47.2774 115.524 47.5566C115.025 47.8358 114.449 47.9754 113.794 47.9754C113.14 47.9754 112.564 47.8358 112.065 47.5566C111.551 47.2774 111.162 46.8896 110.866 46.3933C110.57 45.8969 110.43 45.3385 110.43 44.7181ZM112.19 44.7181C112.19 45.199 112.346 45.6022 112.642 45.928C112.938 46.2537 113.327 46.4088 113.794 46.4088C114.262 46.4088 114.636 46.2537 114.947 45.928C115.243 45.6022 115.399 45.199 115.399 44.7181C115.399 44.2373 115.243 43.834 114.947 43.5083C114.651 43.1825 114.262 43.0274 113.794 43.0274C113.327 43.0274 112.953 43.1825 112.642 43.5083C112.346 43.8185 112.19 44.2218 112.19 44.7181Z" fill="white"/>
<path d="M11.7611 7.67792C8.8169 7.67792 6.1064 8.76369 4.05017 10.563V2.01642C4.05017 0.899635 3.14667 0 2.02508 0C0.903498 0 0 0.899635 0 2.01642V19.3887C0 25.8412 5.28079 31.0995 11.7611 31.0995C18.2413 31.0995 23.5221 25.8412 23.5221 19.3887C23.5221 12.9361 18.2413 7.67792 11.7611 7.67792ZM11.7611 27.0666C7.50838 27.0666 4.05017 23.6232 4.05017 19.3887C4.05017 15.1542 7.50838 11.7108 11.7611 11.7108C16.0137 11.7108 19.4719 15.1542 19.4719 19.3887C19.4719 23.6232 16.0137 27.0666 11.7611 27.0666Z" fill="white"/>
<path d="M94.9456 18.6906C92.9205 17.853 90.9266 17.4342 90.8331 17.4187C90.8175 17.4187 89.2909 17.093 87.702 16.4726C85.2563 15.4954 84.9759 14.7353 84.9759 14.7353C84.9759 13.9288 86.0041 12.9671 87.4839 12.4087C89.8829 11.4936 93.6682 11.4936 96.3943 14.5337C97.142 15.3558 98.4194 15.4333 99.245 14.6888C100.071 13.9443 100.148 12.6724 99.4008 11.8503C97.6093 9.8649 95.3039 8.56198 92.718 8.08114C90.4904 7.66235 88.1226 7.86399 86.0352 8.65505C82.8886 9.8649 80.9258 12.1915 80.9258 14.7509C80.9258 16.9379 82.6082 18.7372 85.9106 20.1021C87.9357 20.9397 89.9296 21.3585 90.0231 21.374C90.0387 21.374 91.5653 21.6998 93.1542 22.3202C95.5998 23.2819 95.8802 24.0574 95.8958 24.0574C95.8958 24.864 94.8677 25.8257 93.3878 26.3841C90.9889 27.2992 87.2035 27.2992 84.4775 24.2591C83.7297 23.437 82.4524 23.3594 81.6268 24.104C80.8012 24.8485 80.7233 26.1204 81.471 26.9425C83.2624 28.9279 85.5679 30.2308 88.1538 30.7116C88.9171 30.8512 89.6804 30.9288 90.4592 30.9288C91.9547 30.9288 93.4657 30.6651 94.8365 30.1377C97.9832 28.9279 99.946 26.6012 99.946 24.0419C99.9304 21.8549 98.248 20.0556 94.9456 18.6906Z" fill="white"/>
<path d="M115.975 27.1442C113.669 27.1442 111.301 25.9188 111.301 23.8869C111.301 22.0566 111.27 16.7363 111.224 11.7883H114.105C115.227 11.7883 116.13 10.8887 116.13 9.7719C116.13 8.65511 115.227 7.75547 114.105 7.75547H111.192C111.161 4.49818 111.146 2.06296 111.146 2.00091C111.13 0.899635 110.227 0 109.121 0H109.105C107.983 0.0155109 107.096 0.915146 107.096 2.03193C107.096 2.09398 107.111 4.5292 107.142 7.75547H105.849C104.728 7.75547 103.824 8.65511 103.824 9.7719C103.824 10.8887 104.728 11.7883 105.849 11.7883H107.173C107.205 16.7363 107.251 22.0721 107.251 23.8869C107.251 26.0584 108.279 28.0128 110.133 29.3622C111.722 30.5255 113.794 31.1615 115.959 31.1615C117.081 31.1615 117.984 30.2619 117.984 29.1451C117.984 28.0283 117.081 27.1442 115.975 27.1442Z" fill="white"/>
<path d="M43.1341 24.7555L43.0563 24.8175C41.592 26.3221 39.6292 27.1441 37.5262 27.1441C37.2303 27.1441 36.9343 27.1286 36.6539 27.0976L36.9343 29.2381L35.2363 30.9598C35.9841 31.0994 36.7474 31.1925 37.5262 31.1925C40.704 31.1925 43.6794 29.9516 45.9225 27.687L50.1596 23.7473L47.4024 20.8002L43.1341 24.7555Z" fill="white"/>
<path d="M36.0313 26.989C32.4952 26.291 29.8314 23.1733 29.8314 19.4507C29.8314 17.9927 30.2364 16.6277 30.953 15.4644L28.8033 15.0611L27.7284 13.0292C26.4978 14.875 25.7812 17.093 25.7812 19.4662C25.7812 24.8951 29.5043 29.4553 34.5358 30.7892L36.2961 29.0055L36.0313 26.989Z" fill="white"/>
<path d="M31.3262 14.9216C32.7282 13.0137 34.9869 11.7883 37.5417 11.7883C39.6758 11.7883 41.6697 12.6414 43.1496 14.1925L43.1963 14.2391L44.7229 15.6506L45.3616 13.4325L47.3867 12.6259L46.0314 11.3695C43.7883 9.0429 40.7818 7.75549 37.5417 7.75549C33.694 7.75549 30.2825 9.6013 28.1328 12.4553L29.2077 14.5338L31.3262 14.9216Z" fill="white"/>
<path d="M50.41 20.9397L56.4852 26.5857L57.0928 24.5228L59.2736 23.6541L53.1672 17.9926L47.8864 13.0912L45.8613 13.8822L45.2227 16.1158L50.41 20.9397Z" fill="white"/>
<path d="M60.3632 14.2701L60.4567 14.177C61.9366 12.6259 63.9149 11.7728 66.0646 11.7728C67.0771 11.7728 68.0585 11.9745 68.9465 12.3312L70.4731 10.7956L70.1615 8.50002C68.8841 8.01918 67.4977 7.75549 66.049 7.75549C62.8089 7.75549 59.8024 9.0429 57.5593 11.3695L53.9297 14.7354L56.6869 17.6825L60.3632 14.2701Z" fill="white"/>
<path d="M70.8164 8.76367L71.1124 11.0128L69.5234 12.6104C72.0314 13.8823 73.7605 16.4726 73.7605 19.4662C73.7605 21.3275 73.0907 23.0493 71.9691 24.3677L73.0284 26.3996L75.1937 26.8029C76.8293 24.7865 77.8107 22.2427 77.8107 19.4662C77.8107 14.7044 74.9289 10.594 70.8164 8.76367Z" fill="white"/>
<path d="M71.5319 24.864C70.1299 26.2755 68.1983 27.1441 66.0486 27.1441C63.9456 27.1441 61.9829 26.3221 60.5186 24.8175L60.4874 24.7865L59.7864 24.135L57.6056 25.0036L56.998 27.0666L57.6523 27.6715C59.8799 29.9361 62.8552 31.177 66.0486 31.177C69.4757 31.177 72.5756 29.7034 74.7253 27.3613L72.6223 26.9735L71.5319 24.864Z" fill="white"/>
</g>
<defs>
<clipPath id="clip0_4538_5">
<rect width="118" height="51" fill="white"/>
</clipPath>
</defs>
</svg>
